<svg width="170" height="170" viewBox="0 0 170 170" fill="none" xmlns="http://www.w3.org/2000/svg">
<path d="M76.5232 103.136H93.4733H76.5232ZM85 52.3547V55.982V52.3547ZM108.084 61.9161L105.519 64.4806L108.084 61.9161ZM117.645 84.9999H114.018H117.645ZM55.9821 84.9999H52.3549H55.9821ZM64.4807 64.4806L61.9163 61.9161L64.4807 64.4806ZM72.1741 97.8258C69.6382 95.2892 67.9114 92.0577 67.212 88.5397C66.5126 85.0218 66.872 81.3754 68.2448 78.0618C69.6176 74.7481 71.9422 71.9159 74.9246 69.9232C77.907 67.9306 81.4132 66.8671 85 66.8671C88.5868 66.8671 92.0931 67.9306 95.0755 69.9232C98.0578 71.9159 100.382 74.7481 101.755 78.0618C103.128 81.3754 103.487 85.0218 102.788 88.5397C102.089 92.0577 100.362 95.2892 97.8259 97.8258L95.8382 99.8099C94.7018 100.947 93.8005 102.296 93.1856 103.781C92.5707 105.266 92.2543 106.857 92.2545 108.465V110.391C92.2545 112.315 91.4902 114.16 90.1297 115.52C88.7692 116.881 86.924 117.645 85 117.645C83.076 117.645 81.2308 116.881 79.8703 115.52C78.5099 114.16 77.7455 112.315 77.7455 110.391V108.465C77.7455 105.218 76.4542 102.102 74.1618 99.8099L72.1741 97.8258Z" stroke="#EC7979" stroke-width="6.83333" stroke-linecap="round" stroke-linejoin="round"/>
<circle cx="85" cy="85" r="45.5" stroke="#EC7979"/>
</svg>
