<svg width="184" height="75" viewBox="0 0 184 75" fill="none" xmlns="http://www.w3.org/2000/svg">
<path d="M10.6011 22.4561H16.1137L26.3906 53.1462H20.7993L18.2006 45.4953H8.43549L5.87609 53.1462H0.28479L10.6011 22.4561ZM17.2162 41.3024L13.3574 28.6374L9.34112 41.3024H17.2162Z" fill="white"/>
<path d="M32.3708 22.4561L39.3008 33.7812L46.1915 22.4561H52.0978L42.4115 38.0173L51.7828 53.1462H45.8765L39.3008 42.2534L32.6858 53.1462H26.7401L36.1114 38.0173L26.4251 22.4561H32.3708Z" fill="white"/>
<path d="M54.9126 53.1462V22.4561H60.3464V53.1462H54.9126Z" fill="#EC7979"/>
<path d="M87.0875 27.6864H78.1493V53.1462H72.7549V27.6864H63.8167V22.4561H87.0875V27.6864Z" fill="#EC7979"/>
</svg>
